<?xml version="1.0" encoding="utf-8"?>
<!-- Generator: Adobe Illustrator 16.0.0, SVG Export Plug-In . SVG Version: 6.00 Build 0)  -->
<!DOCTYPE svg PUBLIC "-//W3C//DTD SVG 1.1//EN" "http://www.w3.org/Graphics/SVG/1.1/DTD/svg11.dtd">
<svg version="1.1" id="Calque_1" xmlns="http://www.w3.org/2000/svg" xmlns:xlink="http://www.w3.org/1999/xlink" x="0px" y="0px"
	 width="200px" height="200px" viewBox="-235.978 0 200 200" enable-background="new -235.978 0 200 200" xml:space="preserve">
<path fill="#E6175C" d="M-74.486,67.595c-0.959-33.143-28.11-59.72-61.485-59.72c-33.426,0-60.605,26.659-61.486,59.872
	c-0.014,0.439-0.043,0.873-0.043,1.319c0,0.07,0.004,0.139,0.004,0.208c0,0.043-0.004,0.086-0.004,0.129
	c0,0.184,0.013,0.363,0.015,0.547c0.59,60.569,61.517,91.586,61.517,91.586s60.958-29.71,61.517-91.615
	C-74.453,69.749-74.47,68.085-74.486,67.595z"/>
<circle fill="#FFFFFF" cx="-135.971" cy="69.404" r="46.487"/>
<circle fill="#FFFFFF" cx="-135.971" cy="69.404" r="46.487"/>
</svg>
