<?xml version="1.0" encoding="utf-8"?>
<!-- Generator: Adobe Illustrator 17.1.0, SVG Export Plug-In . SVG Version: 6.00 Build 0)  -->
<!DOCTYPE svg PUBLIC "-//W3C//DTD SVG 1.1//EN" "http://www.w3.org/Graphics/SVG/1.1/DTD/svg11.dtd">
<svg version="1.1" id="Calque_1" xmlns="http://www.w3.org/2000/svg" xmlns:xlink="http://www.w3.org/1999/xlink" x="0px" y="0px"
	 viewBox="0 0 414 868" enable-background="new 0 0 414 868" xml:space="preserve">
<g display="none">
	<g display="inline">
		<path fill="#333333" d="M57.6,866.5c-30.9,0-56.1-25.1-56.1-56.1V56.6c0-30.9,25.1-56.1,56.1-56.1h298.9
			c30.9,0,56.1,25.1,56.1,56.1v753.9c0,30.9-25.1,56.1-56.1,56.1L57.6,866.5L57.6,866.5z M18.5,761.5h376v-669h-376V761.5z"/>
		<path d="M356.5,1C387.1,1,412,25.9,412,56.6v753.9c0,30.6-24.9,55.6-55.6,55.6H57.6C26.9,866,2,841.1,2,810.4V56.6
			C2,25.9,26.9,1,57.6,1H356.5 M18,762h1h375h1v-1V93v-1h-1H19h-1v1v668V762 M356.5,0H57.6C26.3,0,1,25.3,1,56.6v753.9
			C1,841.7,26.3,867,57.6,867h298.9c31.2,0,56.6-25.3,56.6-56.6V56.6C413,25.3,387.7,0,356.5,0L356.5,0z M19,761V93h375v668H19
			L19,761z"/>
	</g>
	<g display="inline">
		<path fill="#333333" d="M207.9,840.6c-16.8,0-30.4-13.6-30.4-30.4c0-16.8,13.6-30.4,30.4-30.4s30.4,13.6,30.4,30.4
			C238.3,826.9,224.7,840.6,207.9,840.6z"/>
		<path d="M207.9,780.2c16.5,0,29.9,13.4,29.9,29.9c0,16.5-13.4,29.9-29.9,29.9c-16.5,0-29.9-13.4-29.9-29.9
			C178,793.7,191.4,780.2,207.9,780.2 M207.9,779.2c-17.1,0-30.9,13.8-30.9,30.9c0,17.1,13.8,30.9,30.9,30.9
			c17.1,0,30.9-13.8,30.9-30.9C238.8,793.1,225,779.2,207.9,779.2L207.9,779.2z"/>
	</g>
	<g display="inline">
		<path fill="#333333" d="M185.5,54.5c-0.9,0-1.8-1-1.8-2s0.9-2,1.8-2h45.2c0.9,0,1.8,1,1.8,2c0,0.9-0.8,2-1.8,2H185.5z"/>
		<path d="M230.7,51.5c0.6,0,1.3,0.7,1.3,1.5s-0.6,1.5-1.3,1.5h-45.2c-0.6,0-1.3-0.7-1.3-1.5s0.6-1.5,1.3-1.5h45 M230.7,50.5h-45.2
			c-1.2,0-2.3,1.3-2.3,2.5c0,1.2,1,2.5,2.3,2.5h45.2c1.2,0,2.3-1.3,2.3-2.5C233,51.8,232,50.5,230.7,50.5L230.7,50.5z"/>
	</g>
</g>
<g>
	<path d="M360.6,0c14.1,3.6,27.1,9.2,37,20.5c10.5,12,16.1,25.9,16.2,41.9c0.1,29-0.3,58,0.1,87c0.4,21.5,4.1,43.1,2.3,64.3
		c-5.3,64.6-1.4,129.2-2.3,193.8c-0.9,64.7-0.2,129.4-0.2,194.1c0,64.9,0.1,129.9,0,194.8c0,36.7-26.8,63.4-63.6,63.4
		c-96.6,0.1-193.1,0.1-289.7,0c-37.1,0-63.7-26.8-63.7-64.1c0-164.1,0.1-328.3-0.1-492.4c0-20.3-2.1-40.5-2.6-60.8
		c-0.2-6.3,4-13.4,2.2-18.8c-4.3-13.2-2.1-26.3-2.2-39.4c-0.1-14,2.2-28,2.5-42c0.3-11.4-1.3-22.8-1.2-34.1
		c0.1-16.7,0.7-33.4,1.5-50c1.4-26.6,21.3-50,47.6-56.5c1.8-0.5,3.6-1.1,5.4-1.6C153.6,0,257.1,0,360.6,0z M409.5,430.4
		c0-121,0-242,0-363c0-39-24.1-63-63.3-63c-93.9,0-187.9,0-281.8,0C25.3,4.3,1.2,28.4,1.2,67.4c0,241.8,0,483.6,0,725.3
		c0,38.9,23.8,62.7,62.6,62.8c94.4,0,188.8,0,283.2,0c38.9,0,62.5-23.7,62.5-62.8C409.5,671.9,409.5,551.1,409.5,430.4z
		 M415.1,167.3c-0.2-0.1-0.5-0.2-0.7-0.3c0,17,0,34,0,51c0.2,0,0.5,0,0.7,0C415.1,201.1,415.1,184.2,415.1,167.3z M-3.5,169.8
		c-0.2,0-0.4,0-0.6,0c0,15.6,0,31.3,0,46.9c0.2,0,0.4,0,0.6,0C-3.5,201-3.5,185.4-3.5,169.8z M-4.2,284.3c0.2,0,0.5-0.1,0.7-0.1
		c0-15.6,0-31.2,0-46.8c-0.2,0-0.5,0-0.7,0C-4.2,253.1-4.2,268.7-4.2,284.3z"/>
	<path fill="#FFFFFF" d="M409.5,430.4c0,120.8,0,241.5,0,362.3c0,39.1-23.6,62.8-62.5,62.8c-94.4,0-188.8,0-283.2,0
		c-38.8,0-62.6-23.8-62.6-62.8c0-241.8,0-483.6,0-725.3c0-39,24.2-63.1,63.3-63.1c93.9,0,187.9,0,281.8,0c39.2,0,63.3,24,63.3,63
		C409.5,188.3,409.5,309.3,409.5,430.4z M390.7,756.3c0.5-2.2,1.5-4.3,1.5-6.5c0.1-215.6,0.1-431.3,0-646.9c0-2.2-1-4.4-1.5-6.5
		c-2.4-0.5-4.9-1.4-7.3-1.4c-118.6-0.1-237.2,0-355.8-0.2c-6.6,0-7.9,2-7.8,8.2c0.1,215.6,0.1,431.3,0.1,646.9c0,2.5,0.3,5,0.4,7.6
		c2.3,0.2,3.8,0.3,5.2,0.3c119.8,0,239.6,0,359.4,0C386.8,757.6,388.8,756.7,390.7,756.3z M234.1,800c1.3-13.4-16.4-27.8-24.9-27.5
		c-19,0.6-31.3,11.1-31.4,27c-0.1,20.7,14.5,29.4,27.2,29.9C220.5,829.9,234.1,815.8,234.1,800z M229.8,55.5c0-0.1,0-0.2,0-0.3
		c-16.4,0-32.7,0-49.1,0c0,0.1,0,0.2,0,0.3C197.1,55.5,213.5,55.5,229.8,55.5z M180.9,49.4c0.1,0.1,0.1,0.2,0.2,0.3
		c16.1,0,32.2,0,48.3,0c0-0.1,0-0.2,0-0.3C213.2,49.4,197.1,49.4,180.9,49.4z"/>
	<path fill="#FFFFFF" d="M415.1,167.3c0,16.9,0,33.8,0,50.7c-0.2,0-0.5,0-0.7,0c0-17,0-34,0-51C414.6,167.1,414.8,167.2,415.1,167.3
		z"/>
	<path fill="#FFFFFF" d="M-3.5,169.8c0,15.6,0,31.3,0,46.9c-0.2,0-0.4,0-0.6,0c0-15.6,0-31.3,0-46.9C-3.9,169.8-3.7,169.8-3.5,169.8
		z"/>
	<path fill="#FFFFFF" d="M-4.2,284.3c0-15.6,0-31.3,0-46.9c0.2,0,0.5,0,0.7,0c0,15.6,0,31.2,0,46.8C-3.8,284.2-4,284.3-4.2,284.3z"
		/>
	<path fill="#FFFFFF" d="M234.1,800c0,15.8-13.6,29.9-29.1,29.4c-12.6-0.4-27.3-9.2-27.2-29.9c0.1-16,12.4-26.4,31.4-27
		C217.7,772.2,235.4,786.6,234.1,800z"/>
	<path d="M390.7,756.3c-1.9,0.5-3.9,1.4-5.8,1.4c-119.8,0.1-239.6,0.1-359.4,0c-1.4,0-2.8-0.2-5.2-0.3c-0.1-2.5-0.4-5-0.4-7.6
		c0-215.6,0-431.3-0.1-646.9c0-6.1,1.3-8.2,7.8-8.2C146.2,95,264.8,94.9,383.4,95c2.4,0,4.9,0.9,7.3,1.4l0.2-0.1
		c-123,0-246.1,0-369.1,0c0,220.6,0,440.1,0,660c3.4,0,6.2,0,9,0c120,0,240,0.1,360,0.1L390.7,756.3z"/>
	<path d="M390.7,96.3c0.5,2.2,1.5,4.4,1.5,6.5c0.1,215.6,0.1,431.3,0,646.9c0,2.2-1,4.3-1.5,6.5c0,0,0.2,0.1,0.2,0.1
		c0-175.5-0.1-351-0.1-526.5c0-44.5,0.1-89.1,0.1-133.6L390.7,96.3z"/>
	<path d="M229.8,55.5c-16.4,0-32.7,0-49.1,0c0-0.1,0-0.2,0-0.3c16.4,0,32.7,0,49.1,0C229.8,55.3,229.8,55.4,229.8,55.5z"/>
	<path d="M180.9,49.4c16.2,0,32.4,0,48.5,0c0,0.1,0,0.2,0,0.3c-16.1,0-32.2,0-48.3,0C181,49.6,180.9,49.5,180.9,49.4z"/>
	<path fill="#FFFFFF" d="M390.9,96.2c0,44.5-0.1,89.1-0.1,133.6c0,175.5,0.1,351,0.1,526.5c-120,0-240-0.1-360-0.1c-2.8,0-5.7,0-9,0
		c0-220,0-439.5,0-660C144.9,96.2,267.9,96.2,390.9,96.2z"/>
</g>
</svg>
