<?xml version="1.0" encoding="utf-8"?>
<!-- Generator: Adobe Illustrator 16.0.0, SVG Export Plug-In . SVG Version: 6.00 Build 0)  -->
<!DOCTYPE svg PUBLIC "-//W3C//DTD SVG 1.1//EN" "http://www.w3.org/Graphics/SVG/1.1/DTD/svg11.dtd">
<svg version="1.1" id="Calque_1" xmlns="http://www.w3.org/2000/svg" xmlns:xlink="http://www.w3.org/1999/xlink" x="0px" y="0px"
	 width="413.997px" height="868px" viewBox="0 0 413.997 868" enable-background="new 0 0 413.997 868" xml:space="preserve">
<g>
	<g>
		<path fill="#333333" d="M57.568,866.5c-30.909,0-56.056-25.146-56.056-56.056V56.556C1.513,25.646,26.659,0.5,57.568,0.5h298.889
			c30.909,0,56.056,25.146,56.056,56.056v753.889c0,30.909-25.146,56.056-56.056,56.056H57.568z M18.513,761.5h376v-669h-376V761.5z
			"/>
		<path d="M356.457,1c30.634,0,55.556,24.922,55.556,55.556v753.889c0,30.634-24.922,55.556-55.556,55.556H57.568
			c-30.634,0-55.556-24.922-55.556-55.556V56.556C2.013,25.922,26.935,1,57.568,1H356.457 M18.013,762h1h375h1v-1V93v-1h-1h-375h-1
			v1v668V762 M356.457,0H57.568C26.333,0,1.013,25.321,1.013,56.556v753.889C1.013,841.68,26.333,867,57.568,867h298.889
			c31.234,0,56.556-25.32,56.556-56.556V56.556C413.013,25.321,387.691,0,356.457,0L356.457,0z M19.013,761V93h375v668H19.013
			L19.013,761z"/>
	</g>
	<g>
		<path fill="#333333" d="M207.92,840.578c-16.775,0-30.423-13.648-30.423-30.425c0-16.775,13.647-30.424,30.423-30.424
			s30.424,13.648,30.424,30.424C238.344,826.93,224.695,840.578,207.92,840.578z"/>
		<path d="M207.92,780.229c16.5,0,29.924,13.424,29.924,29.924c0,16.501-13.424,29.925-29.924,29.925
			c-16.499,0-29.923-13.424-29.923-29.925C177.997,793.653,191.421,780.229,207.92,780.229 M207.92,779.229
			c-17.079,0-30.923,13.845-30.923,30.924c0,17.08,13.844,30.925,30.923,30.925c17.08,0,30.924-13.845,30.924-30.925
			C238.844,793.074,225,779.229,207.92,779.229L207.92,779.229z"/>
	</g>
	<g>
		<path fill="#333333" d="M185.476,54.5c-0.905,0-1.762-0.972-1.762-2s0.856-2,1.762-2h45.245c0.905,0,1.762,0.972,1.762,2
			c0,0.925-0.77,2-1.762,2H185.476z"/>
		<path d="M230.721,51.5c0.637,0,1.262,0.743,1.262,1.5s-0.625,1.5-1.262,1.5h-45.245c-0.637,0-1.262-0.743-1.262-1.5
			s0.625-1.5,1.262-1.5h45.037 M230.721,50.5h-45.245c-1.248,0-2.262,1.251-2.262,2.5c0,1.248,1.014,2.5,2.262,2.5h45.245
			c1.25,0,2.262-1.252,2.262-2.5C232.982,51.751,231.971,50.5,230.721,50.5L230.721,50.5z"/>
	</g>
</g>
</svg>
